<svg xmlns="http://www.w3.org/2000/svg" viewBox="0 0 319.01 88.34"><defs><style>.cls-1{fill:none;stroke:#000;stroke-miterlimit:10;}</style></defs><title>Asset 9</title><g id="Layer_2" data-name="Layer 2"><g id="Layer_1-2" data-name="Layer 1"><path class="cls-1" d="M51.44.5S26.77,3.3,29.5,5.86s10.06,4.49,13,6.38c7.85,5.11,10.09,12.64,10.09,16.34s-1.44,12-3,15.31S43,56.15,39.75,59.34A82.2,82.2,0,0,1,29.18,68.4c-5.45,4.09-10.1,7.4-12.82,8.3S5.47,77,3.86,76.06.5,71.59.5,67.25s3.68-12,10.57-22.85S28.21,19.13,29.82,17.22s7.85-8.43,7.85-8.43"/><path class="cls-1" d="M22.63,77.58S43.14,66.35,46.35,64.9s6.28-2.56,6.28-2.56l3.49-.66C59.05,62.23,42.73,76,42.73,76c-1.82,2.22,33.9-12.9,33.9-12.9"/><path class="cls-1" d="M150.05,19.86C127.83,36.93,80.6,88,80.6,88"/><path class="cls-1" d="M186,11.63C126.24,47.37,96.08,81.52,96.08,81.52"/><line class="cls-1" x1="105.6" y1="62.39" x2="114.33" y2="62.71"/><path class="cls-1" d="M116.52,62.39c-1.59,4.58-.2,4.9-.2,4.9,1.19.79,4-4.11,8.93-6s5.55-1.9,7.54-2.05-5.16,7.59-6.55,9.64,17.66-3.79,20.84-3.48,1,8.07,2.38,8.22,3.57,1.11,7.14-.15,26-25.93,39.69-36.37,35.13-25.61,36.91-26.4-67.47,52-65.29,66.25S208,64.29,245.71,56.06s73.22-2.84,73.22-2.84"/></g></g></svg>